<svg version="1.1" viewBox="0.0 0.0 960.0 720.0" fill="none" stroke="none" strokeLinecap="square" strokeMiterlimit="10" xmlnsXlink="http://www.w3.org/1999/xlink" xmlns="http://www.w3.org/2000/svg" style="height: 22.63" >
<clipPath id="p.0"><path d="m0 0l960.0 0l0 720.0l-960.0 0l0 -720.0z" clipRule="nonzero" /></clipPath>
<g clipPath="url(#p.0)">
    <path fill="#000000" fillOpacity="0.0" d="m0 0l960.0 0l0 720.0l-960.0 0z" fillRule="evenodd" />
    <path fill="#000000" d="m243.45009 -0.17608136l-242.82036 0l0 194.1241l242.82036 0z" fillRule="evenodd" />
    <path stroke="#000000" strokeWidth="1.0" strokeLinejoin="round" strokeLinecap="butt" d="m243.45009 -0.17608136l-242.82036 0l0 194.1241l242.82036 0z" fillRule="evenodd" />
    <path fill="#000000" d="m601.4111 -0.17608136l-242.82034 0l0 194.1241l242.82034 0z" fillRule="evenodd" />
    <path stroke="#000000" strokeWidth="1.0" strokeLinejoin="round" strokeLinecap="butt" d="m601.4111 -0.17608136l-242.82034 0l0 194.1241l242.82034 0z" fillRule="evenodd" />
    <path fill="#000000" d="m959.372 -0.17608136l-242.82031 0l0 194.1241l242.82031 0z" fillRule="evenodd" />
    <path stroke="#000000" strokeWidth="1.0" strokeLinejoin="round" strokeLinecap="butt" d="m959.372 -0.17608136l-242.82031 0l0 194.1241l242.82031 0z" fillRule="evenodd" />
    <path fill="#000000" d="m243.45009 262.47488l-242.82036 0l0 194.12408l242.82036 0z" fillRule="evenodd" />
    <path stroke="#000000" strokeWidth="1.0" strokeLinejoin="round" strokeLinecap="butt" d="m243.45009 262.47488l-242.82036 0l0 194.12408l242.82036 0z" fillRule="evenodd" />
    <path fill="#000000" d="m601.4111 262.47488l-242.82034 0l0 194.12408l242.82034 0z" fillRule="evenodd" />
    <path stroke="#000000" strokeWidth="1.0" strokeLinejoin="round" strokeLinecap="butt" d="m601.4111 262.47488l-242.82034 0l0 194.12408l242.82034 0z" fillRule="evenodd" />
    <path fill="#000000" d="m959.372 262.47488l-242.82031 0l0 194.12408l242.82031 0z" fillRule="evenodd" />
    <path stroke="#000000" strokeWidth="1.0" strokeLinejoin="round" strokeLinecap="butt" d="m959.372 262.47488l-242.82031 0l0 194.12408l242.82031 0z" fillRule="evenodd" />
    <path fill="#000000" d="m243.45009 525.12585l-242.82036 0l0 194.12408l242.82036 0z" fillRule="evenodd" />
    <path stroke="#000000" strokeWidth="1.0" strokeLinejoin="round" strokeLinecap="butt" d="m243.45009 525.12585l-242.82036 0l0 194.12408l242.82036 0z" fillRule="evenodd" />
    <path fill="#000000" d="m602.9698 525.1262l-242.82031 0l0 196.35175l242.82031 0z" fillRule="evenodd" />
    <path stroke="#000000" strokeWidth="1.0" strokeLinejoin="round" strokeLinecap="butt" d="m602.9698 525.1262l-242.82031 0l0 196.35175l242.82031 0z" fillRule="evenodd" />
    <path fill="#000000" d="m959.372 525.12585l-242.82031 0l0 194.12408l242.82031 0z" fillRule="evenodd" />
    <path stroke="#000000" strokeWidth="1.0" strokeLinejoin="round" strokeLinecap="butt" d="m959.372 525.12585l-242.82031 0l0 194.12408l242.82031 0z" fillRule="evenodd" />
</g>
</svg>