<svg width="65" height="65" xmlns="http://www.w3.org/2000/svg">

    <g>
        <title>background</title>
        <rect fill="none" id="canvas_background" height="402" width="582" y="-1" x="-1"/>
    </g>
    <g>
        <title>Layer 1</title>
        <g id="svg_1">
            <g id="svg_2">
                <path fill="#BBBBBB" id="svg_3" d="m32.5,0c-17.92,0 -32.5,14.579 -32.5,32.5s14.58,32.5 32.5,32.5s32.5,-14.579 32.5,-32.5s-14.58,-32.5 -32.5,-32.5zm0,61c-15.715,0 -28.5,-12.785 -28.5,-28.5s12.785,-28.5 28.5,-28.5s28.5,12.785 28.5,28.5s-12.785,28.5 -28.5,28.5z"/>
                <circle fill="#BBBBBB" id="svg_4" r="3.345" cy="19.541" cx="33.018"/>
                <path fill="#BBBBBB" id="svg_5" d="m32.137,28.342c-1.104,0 -2,0.896 -2,2l0,17c0,1.104 0.896,2 2,2s2,-0.896 2,-2l0,-17c0,-1.105 -0.896,-2 -2,-2z"/>
            </g>
        </g>
    </g>
</svg>