<svg width="500" height="400" xmlns="http://www.w3.org/2000/svg">
 <!-- Created with Method Draw - http://github.com/duopixel/Method-Draw/ -->

 <g>
  <title>background</title>
  <g display="none" overflow="visible" y="0" x="0" height="100%" width="100%" id="canvasGrid">
   <rect fill="url(#gridpattern)" stroke-width="0" y="0" x="0" height="100%" width="100%"/>
  </g>
 </g>
 <g>
  <title>Layer 1</title>
  <g id="svg_8">
   <g transform="matrix(1.0683119000534589,0,0,1.0683119000534589,0,0) " id="svg_4">
    <g id="svg_5">
     <path fill="#BBBBBB" stroke="#BBBBBB" id="svg_6" d="m294.98628,216.085651c0.8,0.8 1.8,1.2 2.9,1.2s2.1,-0.4 2.9,-1.2l27,-27c0.2,-0.2 0.4,-0.4 0.5,-0.6c0,0 0.1,-0.1 0.1,-0.2c0.1,-0.2 0.2,-0.4 0.3,-0.5c0,-0.1 0,-0.2 0.1,-0.2c0.1,-0.2 0.1,-0.3 0.2,-0.5c0.1,-0.3 0.1,-0.5 0.1,-0.8c0,-0.3 0,-0.5 -0.1,-0.8c0,-0.2 -0.1,-0.4 -0.2,-0.5c0,-0.1 0,-0.2 -0.1,-0.2c-0.1,-0.2 -0.2,-0.4 -0.3,-0.6c0,0 0,-0.1 -0.1,-0.1c-0.1,-0.2 -0.3,-0.4 -0.5,-0.6l-27,-27c-1.6,-1.6 -4.2,-1.6 -5.8,0c-1.6,1.6 -1.6,4.2 0,5.8l20,20l-71.1,0c-2.3,0 -4.1,1.8 -4.1,4.1c0,2.3 1.8,4.1 4.1,4.1l71.1,0l-20,20c-1.6,1.4 -1.6,4 0,5.6z"/>
     <path fill="#BBBBBB" stroke="#BBBBBB" id="svg_7" d="m216.88628,244.185651l54,0c2.3,0 4.1,-1.8 4.1,-4.1l0,-40.3c0,-2.3 -1.8,-4.1 -4.1,-4.1s-4.1,1.8 -4.1,4.1l0,36.2l-45.8,0l0,-99.7l45.8,0l0,36.2c0,2.3 1.8,4.1 4.1,4.1s4.1,-1.8 4.1,-4.1l0,-40.3c0,-2.3 -1.8,-4.1 -4.1,-4.1l-54,0c-2.3,0 -4.1,1.8 -4.1,4.1l0,107.9c0.1,2.3 1.9,4.1 4.1,4.1z"/>
    </g>
    <polyline stroke-linecap="round" id="svg_9" points="243.05556403266064,256.6666666666667 243.05556403266064,256.6666666666667 " stroke-width="1.5" stroke="#BBBBBB" fill="none"/>
   </g>
  </g>
 </g>
</svg>