<svg xmlns="http://www.w3.org/2000/svg" width="585" height="405" style=""><rect id="backgroundrect" width="100%" height="100%" x="0" y="0" fill="none" stroke="none"/>
 <!-- Created with Method Draw - http://github.com/duopixel/Method-Draw/ -->

 <g style="">
  <title>background</title>
  <rect fill="#fff" id="canvas_background" height="402" width="582" y="-1" x="-1"/>
  <g display="none" overflow="visible" y="0" x="0" height="100%" width="100%" id="canvasGrid">
   <rect fill="url(#gridpattern)" stroke-width="0" y="0" x="0" height="100%" width="100%" id="svg_1"/>
  </g>
 </g>
 <g style="" class="currentLayer">
  <title>Layer 1</title>
  <g id="svg_8" class="">
   <g id="svg_4">
    <g id="svg_5" stroke-width="0">
     <path fill="#BBBBBB" stroke="#BBBBBB" id="svg_6" d="m408.98373829946013,274.8519255561427 c3.9636686697751085,2.4913027402903607 8.91825450699399,3.7369541104355415 14.36829892793476,3.7369541104355415 s10.404630258159653,-1.245651370145181 14.36829892793476,-3.7369541104355415 l133.77381760490982,-84.08146748479963 c0.9909171674437772,-0.6228256850725905 1.981834334887555,-1.245651370145181 2.4772929186094412,-1.8684770552177703 c0,0 0.49545858372188867,-0.3114128425362949 0.49545858372188867,-0.6228256850725905 c0.49545858372188867,-0.6228256850725905 0.9909171674437772,-1.245651370145181 1.486375751165666,-1.5570642126814747 c0,-0.3114128425362949 0,-0.6228256850725905 0.49545858372188867,-0.6228256850725905 c0.49545858372188867,-0.6228256850725905 0.49545858372188867,-0.9342385276088848 0.9909171674437772,-1.5570642126814747 c0.49545858372188867,-0.9342385276088848 0.49545858372188867,-1.5570642126814747 0.49545858372188867,-2.4913027402903607 c0,-0.9342385276088848 0,-1.5570642126814747 -0.49545858372188867,-2.4913027402903607 c0,-0.6228256850725905 -0.49545858372188867,-1.245651370145181 -0.9909171674437772,-1.5570642126814747 c0,-0.3114128425362949 0,-0.6228256850725905 -0.49545858372188867,-0.6228256850725905 c-0.49545858372188867,-0.6228256850725905 -0.9909171674437772,-1.245651370145181 -1.486375751165666,-1.8684770552177703 c0,0 0,-0.3114128425362949 -0.49545858372188867,-0.3114128425362949 c-0.49545858372188867,-0.6228256850725905 -1.486375751165666,-1.245651370145181 -2.4772929186094412,-1.8684770552177703 l-133.77381760490982,-84.08146748479963 c-7.927337339550214,-4.982605480580719 -20.809260516319306,-4.982605480580719 -28.73659785586952,0 c-7.927337339550214,4.982605480580719 -7.927337339550214,13.079339386524385 0,18.0619448671051 l99.09171674437765,62.28256850725898 l-352.2710530262625,0 c-11.395547425603429,0 -20.313801932597418,5.605431165653306 -20.313801932597418,12.76792654398809 c0,7.162495378334782 8.91825450699399,12.76792654398809 20.313801932597418,12.76792654398809 l352.2710530262625,0 l-99.09171674437765,62.28256850725898 c-7.927337339550214,4.359779795508128 -7.927337339550214,12.456513701451795 0,17.439119182032513 z" stroke-width="0"/>
     <path fill="#BBBBBB" stroke="#BBBBBB" id="svg_7" d="m22.030584412665362,362.3589343088415 l267.54763520981965,0 c11.395547425603429,0 20.313801932597418,-5.605431165653306 20.313801932597418,-12.76792654398809 l0,-125.49937554212683 c0,-7.162495378334782 -8.91825450699399,-12.76792654398809 -20.313801932597418,-12.76792654398809 s-20.313801932597418,5.605431165653306 -20.313801932597418,12.76792654398809 l0,112.73144899813876 l-226.9200313446248,0 l0,-310.478604008686 l226.9200313446248,0 l0,112.73144899813876 c0,7.162495378334782 8.91825450699399,12.76792654398809 20.313801932597418,12.76792654398809 s20.313801932597418,-5.605431165653306 20.313801932597418,-12.76792654398809 l0,-125.49937554212683 c0,-7.162495378334782 -8.91825450699399,-12.76792654398809 -20.313801932597418,-12.76792654398809 l-267.54763520981965,0 c-11.395547425603429,0 -20.313801932597418,5.605431165653306 -20.313801932597418,12.76792654398809 l0,336.0144570966622 c0.49545858372188867,7.162495378334782 9.413713090715877,12.76792654398809 20.313801932597418,12.76792654398809 z" stroke-width="0"/>
    </g>
    <polyline stroke-linecap="round" id="svg_9" points="151.68850708007812,401.22637939453125 151.68850708007812,401.22637939453125 " stroke-width="1.6024678500801883" stroke="#BBBBBB" fill="none"/>
   </g>
  </g>
 </g>
</svg>